:FULLY-SPECIFIED
:FORCE-ALL-JOINTS-BE-3DOF
:DEGREES
374
root 6.19653 16.4901 -15.8899 9.29072 -17.2788 -6.1188
lfemur -45.8052 23.0942 -13.0142
ltibia 71.2755 -0 0
lfoot -11.4241 -2.71151 -0.0900907
ltoes 14.1505 -0 0
rfemur -25.3352 -4.37397 31.4526
rtibia 42.824 -0 0
rfoot -21.0706 0.793172 0.020306
rtoes 18.5787 -0 0
lowerback 5.41772 1.51353 3.36331
upperback 2.66309 2.16816 1.05846
thorax -0.2158 1.10099 -0.909006
lowerneck -7.9794 -1.18444 2.9115
upperneck -0.661744 -1.89395 2.104
head 1.11716 -0.911041 0.101461
lclavicle 1.01778e-013 1.19271e-014 0
lhumerus -40.3273 -22.9813 95.0155
lradius 56.651 -0 0
lwrist 19.4581 0 0
lhand -21.6331 2.81725 -0.0304875
lfingers 7.12502 -0 0
lthumb 4.76425 32.7692 -0.0214108
rclavicle 1.01778e-013 1.19271e-014 0
rhumerus -37.626 12.3973 -93.5918
rradius 61.207 -0 0
rwrist 9.37457 0 0
rhand -9.02605 -19.5203 -0.00750317
rfingers 7.12502 -0 0
rthumb 16.9213 -48.8013 -0.00693984
375
root 6.14874 16.4847 -15.7482 9.20513 -18.2208 -6.18532
lfemur -45.9738 22.8193 -12.9954
ltibia 71.0597 -0 0
lfoot -11.6298 -2.7316 -0.166952
ltoes 14.4578 -0 0
rfemur -25.2331 -4.7 31.6135
rtibia 43.5456 -0 0
rfoot -20.7752 0.875997 0.0273775
rtoes 19.518 -0 0
lowerback 5.50108 1.62044 3.3452
upperback 2.65853 2.31239 1.00736
thorax -0.264794 1.17249 -0.956546
lowerneck -7.96913 -1.03276 3.0374
upperneck -0.56082 -1.70583 2.03104
head 1.14448 -0.815394 0.0628392
lclavicle 1.01778e-013 1.19271e-014 0
lhumerus -40.3528 -22.7358 94.8245
lradius 56.5482 -0 0
lwrist 19.4508 0 0
lhand -21.8825 2.73291 -0.0569616
lfingers 7.12502 -0 0
lthumb 4.52452 32.7122 -0.0399049
rclavicle 1.01778e-013 1.19271e-014 0
rhumerus -37.9241 12.2902 -93.7704
rradius 60.8997 -0 0
rwrist 9.43802 0 0
rhand -9.26439 -19.5482 -0.0173553
rfingers 7.12502 -0 0
rthumb 16.6918 -48.848 -0.0161185
376
root 6.10094 16.4794 -15.6064 9.10186 -19.1735 -6.22125
lfemur -46.015 22.4757 -12.9543
ltibia 70.6894 -0 0
lfoot -11.7697 -2.62443 -0.230519
ltoes 14.6626 -0 0
rfemur -25.2183 -5.11575 31.7402
rtibia 44.4377 -0 0
rfoot -20.3499 0.907753 0.02212
rtoes 20.5478 -0 0
lowerback 5.5692 1.73372 3.30488
upperback 2.64922 2.4633 0.944337
thorax -0.309851 1.24723 -1.00464
lowerneck -7.95065 -0.885676 3.16786
upperneck -0.447515 -1.52435 1.96504
head 1.17528 -0.722661 0.0255477
lclavicle 1.01778e-013 1.19271e-014 0
lhumerus -40.4081 -22.486 94.652
lradius 56.4315 -0 0
lwrist 19.4574 0 0
lhand -22.07 2.67204 -0.0793651
lfingers 7.12502 -0 0
lthumb 4.34428 32.674 -0.055446
rclavicle 1.01778e-013 1.19271e-014 0
rhumerus -38.2188 12.2013 -93.9199
rradius 60.6324 -0 0
rwrist 9.47968 0 0
rhand -9.50238 -19.552 -0.0291484
rfingers 7.12502 -0 0
rthumb 16.4626 -48.871 -0.0271484
377
root 6.05314 16.4741 -15.4647 8.98129 -20.1336 -6.22799
lfemur -45.9378 22.0682 -12.8929
ltibia 70.1756 -0 0
lfoot -11.849 -2.39926 -0.281215
ltoes 14.7701 -0 0
rfemur -25.2847 -5.61353 31.8343
rtibia 45.4864 -0 0
rfoot -19.804 0.891361 0.00576939
rtoes 21.6569 -0 0
lowerback 5.62289 1.85269 3.24401
upperback 2.6354 2.62006 0.870313
thorax -0.3512 1.32479 -1.05319
lowerneck -7.9245 -0.743159 3.30245
upperneck -0.322758 -1.34936 1.90567
head 1.20932 -0.632796 -0.0104601
lclavicle 1.01778e-013 1.19271e-014 0
lhumerus -40.4908 -22.233 94.497
lradius 56.302 -0 0
lwrist 19.4764 0 0
lhand -22.1994 2.63304 -0.0977381
lfingers 7.12502 -0 0
lthumb 4.22007 32.653 -0.0680717
rclavicle 1.01778e-013 1.19271e-014 0
rhumerus -38.5103 12.129 -94.0422
rradius 60.4032 -0 0
rwrist 9.50105 0 0
rhand -9.74052 -19.5336 -0.0424917
rfingers 7.12502 -0 0
rthumb 16.2332 -48.8724 -0.0396586
378
root 6.00534 16.4687 -15.3229 8.84383 -21.0976 -6.20699
lfemur -45.7512 21.6017 -12.8134
ltibia 69.5292 -0 0
lfoot -11.8723 -2.06526 -0.319848
ltoes 14.7857 -0 0
rfemur -25.4259 -6.18577 31.8978
rtibia 46.6779 -0 0
rfoot -19.1471 0.829699 -0.0201813
rtoes 22.8341 -0 0
lowerback 5.66296 1.97662 3.16421
upperback 2.61729 2.78182 0.786213
thorax -0.389071 1.40478 -1.10208
lowerneck -7.89124 -0.605165 3.44075
upperneck -0.187484 -1.18071 1.85255
head 1.24632 -0.545752 -0.0452325
lclavicle 1.01778e-013 1.19271e-014 0
lhumerus -40.5988 -21.9782 94.3585
lradius 56.1608 -0 0
lwrist 19.5066 0 0
lhand -22.2742 2.61431 -0.112202
lfingers 7.12502 -0 0
lthumb 4.14844 32.6481 -0.0778806
rclavicle 1.01778e-013 1.19271e-014 0
rhumerus -38.7987 12.0721 -94.1386
rradius 60.2104 -0 0
rwrist 9.50366 0 0
rhand -9.97931 -19.4952 -0.0570112
rfingers 7.12502 -0 0
rthumb 16.0032 -48.854 -0.0532941
379
root 5.95755 16.4634 -15.1812 8.68994 -22.062 -6.15971
lfemur -45.4642 21.081 -12.7184
ltibia 68.7613 -0 0
lfoot -11.8447 -1.63156 -0.347516
ltoes 14.7145 -0 0
rfemur -25.6357 -6.82509 31.933
rtibia 47.9983 -0 0
rfoot -18.3886 0.725626 -0.0540499
rtoes 24.0683 -0 0
lowerback 5.69021 2.1048 3.06711
upperback 2.59512 2.94775 0.692963
thorax -0.42369 1.48678 -1.15121
lowerneck -7.8514 -0.471653 3.58232
upperneck -0.0426317 -1.01825 1.80532
head 1.28602 -0.461484 -0.0788186
lclavicle 1.01778e-013 1.19271e-014 0
lhumerus -40.7298 -21.7225 94.2357
lradius 56.0088 -0 0
lwrist 19.5466 0 0
lhand -22.2979 2.6143 -0.122946
lfingers 7.12502 -0 0
lthumb 4.12593 32.6579 -0.0850218
rclavicle 1.01778e-013 1.19271e-014 0
rhumerus -39.084 12.0288 -94.2109
rradius 60.0521 -0 0
rwrist 9.48903 0 0
rhand -10.2192 -19.4387 -0.0723484
rfingers 7.12502 -0 0
rthumb 15.7721 -48.8178 -0.0677148
380
root 5.90975 16.4581 -15.0394 8.52016 -23.0233 -6.08768
lfemur -45.0859 20.5105 -12.6103
ltibia 67.8828 -0 0
lfoot -11.7708 -1.10728 -0.365522
ltoes 14.562 -0 0
rfemur -25.9075 -7.52418 31.942
rtibia 49.4336 -0 0
rfoot -17.5379 0.582004 -0.0940284
rtoes 25.3482 -0 0
lowerback 5.70546 2.23649 2.95435
upperback 2.56911 3.117 0.591487
thorax -0.455285 1.57039 -1.20046
lowerneck -7.80553 -0.342577 3.72673
upperneck 0.110857 -0.86183 1.76359
head 1.32816 -0.379946 -0.111269
lclavicle 1.01778e-013 1.19271e-014 0
lhumerus -40.8816 -21.4673 94.1274
lradius 55.8471 -0 0
lwrist 19.5951 0 0
lhand -22.2743 2.63144 -0.130214
lfingers 7.12502 -0 0
lthumb 4.14909 32.6811 -0.0896842
rclavicle 1.01778e-013 1.19271e-014 0
rhumerus -39.3663 11.9978 -94.2605
rradius 59.9265 -0 0
rwrist 9.45868 0 0
rhand -10.4608 -19.3662 -0.0881599
rfingers 7.12502 -0 0
rthumb 15.5394 -48.7658 -0.0825949
381
root 5.86195 16.4527 -14.8977 8.33509 -23.9779 -5.99248
lfemur -44.6256 19.895 -12.4918
ltibia 66.9046 -0 0
lfoot -11.6555 -0.501488 -0.375291
ltoes 14.3334 -0 0
rfemur -26.235 -8.27582 31.9269
rtibia 50.9702 -0 0
rfoot -16.6045 0.401717 -0.138241
rtoes 26.6627 -0 0
lowerback 5.70953 2.37095 2.82757
upperback 2.53952 3.28874 0.482715
thorax -0.48408 1.65521 -1.24973
lowerneck -7.75418 -0.217891 3.87353
upperneck 0.272035 -0.711316 1.72699
head 1.37247 -0.301094 -0.142635
lclavicle 1.01778e-013 1.19271e-014 0
lhumerus -41.052 -21.2137 94.0329
lradius 55.6768 -0 0
lwrist 19.6507 0 0
lhand -22.2068 2.66417 -0.134289
lfingers 7.12502 -0 0
lthumb 4.21446 32.7165 -0.0920867
rclavicle 1.01778e-013 1.19271e-014 0
rhumerus -39.6456 11.9775 -94.2891
rradius 59.8318 -0 0
rwrist 9.41413 0 0
rhand -10.7045 -19.2797 -0.104117
rfingers 7.12502 -0 0
rthumb 15.3047 -48.7 -0.0976226
382
root 5.81415 16.4474 -14.7559 8.13545 -24.9223 -5.87578
lfemur -44.092 19.2392 -12.3654
ltibia 65.8379 -0 0
lfoot -11.5034 0.176757 -0.378305
ltoes 14.0339 -0 0
rfemur -26.6117 -9.07285 31.8899
rtibia 52.594 -0 0
rfoot -15.5976 0.187687 -0.184801
rtoes 28.0006 -0 0
lowerback 5.70326 2.50743 2.68838
upperback 2.5066 3.46211 0.367575
thorax -0.510301 1.74083 -1.29891
lowerneck -7.6979 -0.0975443 4.02229
upperneck 0.439951 -0.566565 1.69511
head 1.4187 -0.224882 -0.172969
lclavicle 1.01778e-013 1.19271e-014 0
lhumerus -41.2388 -20.9628 93.9513
lradius 55.499 -0 0
lwrist 19.7122 0 0
lhand -22.0991 2.71095 -0.135487
lfingers 7.12502 -0 0
lthumb 4.31861 32.7628 -0.0924699
rclavicle 1.01778e-013 1.19271e-014 0
rhumerus -39.9219 11.9663 -94.2982
rradius 59.7663 -0 0
rwrist 9.3569 0 0
rhand -10.9508 -19.1811 -0.119905
rfingers 7.12502 -0 0
rthumb 15.0674 -48.6224 -0.1125
383
root 5.76636 16.442 -14.6142 7.92203 -25.8531 -5.73932
lfemur -43.4942 18.5477 -12.2332
ltibia 64.6936 -0 0
lfoot -11.3193 0.918406 -0.376036
ltoes 13.6689 -0 0
rfemur -27.0311 -9.90814 31.8329
rtibia 54.2913 -0 0
rfoot -14.5269 -0.0571129 -0.231857
rtoes 29.3507 -0 0
lowerback 5.68749 2.64517 2.53844
upperback 2.47059 3.63628 0.247
thorax -0.534172 1.82685 -1.34789
lowerneck -7.63726 0.0185155 4.17255
upperneck 0.613653 -0.427436 1.66757
head 1.46657 -0.151268 -0.202324
lclavicle 1.01778e-013 1.19271e-014 0
lhumerus -41.4399 -20.7156 93.8817
lradius 55.3146 -0 0
lwrist 19.7781 0 0
lhand -21.9547 2.77024 -0.134143
lfingers 7.12502 -0 0
lthumb 4.45807 32.8186 -0.0910876
rclavicle 1.01778e-013 1.19271e-014 0
rhumerus -40.1952 11.9626 -94.2891
rradius 59.728 -0 0
rwrist 9.28851 0 0
rhand -11.2002 -19.0726 -0.135223
rfingers 7.12502 -0 0
rthumb 14.8271 -48.5348 -0.126941
384
root 5.71856 16.4367 -14.4724 7.69579 -26.7667 -5.58495
lfemur -42.8407 17.8251 -12.0974
ltibia 63.4826 -0 0
lfoot -11.1079 1.71441 -0.369893
ltoes 13.2437 -0 0
rfemur -27.4869 -10.7746 31.7576
rtibia 56.0482 -0 0
rfoot -13.4017 -0.329651 -0.277642
rtoes 30.7018 -0 0
lowerback 5.66306 2.78343 2.37938
upperback 2.43177 3.81041 0.121925
thorax -0.555914 1.91286 -1.39656
lowerneck -7.5728 0.130345 4.32385
upperneck 0.792181 -0.293789 1.64396
head 1.51582 -0.080206 -0.230755
lclavicle 1.01778e-013 1.19271e-014 0
lhumerus -41.653 -20.4734 93.8234
lradius 55.1248 -0 0
lwrist 19.8471 0 0
lhand -21.7773 2.84051 -0.130602
lfingers 7.12502 -0 0
lthumb 4.6294 32.8828 -0.0882002
rclavicle 1.01778e-013 1.19271e-014 0
rhumerus -40.4654 11.965 -94.2636
rradius 59.7152 -0 0
rwrist 9.21049 0 0
rhand -11.4532 -18.9562 -0.149785
rfingers 7.12502 -0 0
rthumb 14.5833 -48.4393 -0.140677
